<?xml version="1.0" encoding="UTF-8" standalone="no"?>
<!-- Created with Inkscape (http://www.inkscape.org/) -->
 
<svg
   width="86.463356mm"
   height="88.253723mm"
   viewBox="0 0 86.463356 88.253723"
   version="1.1"
   id="svg1"
   xml:space="preserve"
   xmlns:inkscape="http://www.inkscape.org/namespaces/inkscape"
   xmlns:sodipodi="http://sodipodi.sourceforge.net/DTD/sodipodi-0.dtd"
   xmlns="http://www.w3.org/2000/svg"
   xmlns:svg="http://www.w3.org/2000/svg"><sodipodi:namedview
     id="namedview1"
     pagecolor="#505050"
     bordercolor="#ffffff"
     borderopacity="1"
     inkscape:showpageshadow="0"
     inkscape:pageopacity="0"
     inkscape:pagecheckerboard="1"
     inkscape:deskcolor="#505050"
     inkscape:document-units="mm"
     inkscape:export-bgcolor="#ffffff00" /><defs
     id="defs1" /><g
     inkscape:label="Layer 1"
     inkscape:groupmode="layer"
     id="layer1"
     transform="translate(-45.212731,-26.503343)"><rect
       style="fill:#000000;fill-opacity:1;stroke:none;stroke-width:0.418571;stroke-linecap:round;stroke-linejoin:round;stroke-miterlimit:3.8;stroke-opacity:1;paint-order:stroke fill markers"
       id="rect1"
       width="86.463356"
       height="88.253723"
       x="45.21273"
       y="26.503342" /><path
       d="m 114.03697,53.317676 c -0.65771,0 -1.29119,0.02142 -1.90066,0.06356 -0.60948,0.04214 -1.19472,0.105377 -1.75597,0.189652 -0.56124,0.08428 -1.09826,0.18933 -1.61127,0.315743 -0.51301,0.126414 -1.00231,0.273799 -1.46709,0.442351 -0.46478,0.165111 -0.89743,0.346879 -1.29863,0.544669 -0.2006,0.0989 -0.39355,0.201961 -0.57826,0.309025 -0.18471,0.107065 -0.36139,0.218079 -0.5302,0.333313 -0.16881,0.115234 -0.32974,0.234714 -0.48266,0.358118 -0.15292,0.123404 -0.29757,0.250832 -0.4346,0.382405 -0.13702,0.131574 -0.26644,0.266951 -0.38757,0.406694 -0.12113,0.139743 -0.23428,0.283586 -0.33951,0.431498 -0.10305,0.147913 -0.19975,0.306529 -0.28991,0.47594 -0.0902,0.169411 -0.17387,0.349625 -0.25115,0.540536 -0.0773,0.19091 -0.14799,0.392722 -0.21239,0.605131 -0.0644,0.212409 -0.12211,0.435818 -0.17363,0.669726 -0.0515,0.233908 -0.0968,0.478399 -0.13539,0.733806 -0.0386,0.255406 -0.0709,0.521495 -0.0966,0.7984 -0.0515,0.553812 -0.077,1.150782 -0.077,1.790589 0,0.443737 0.0181,0.867578 0.0543,1.271757 0.0362,0.404179 0.0904,0.78828 0.16278,1.152901 0.0723,0.364621 0.16278,0.709499 0.2713,1.034562 0.10852,0.325064 0.23512,0.630718 0.37982,0.916223 0.14908,0.285506 0.30719,0.555223 0.47491,0.80977 0.16771,0.254547 0.34488,0.49368 0.53123,0.717269 0.18635,0.223588 0.38206,0.431621 0.58704,0.624251 0.20499,0.19263 0.41924,0.370079 0.64286,0.531751 0.22362,0.161671 0.50509,0.347933 0.84491,0.558622 0.33981,0.210689 0.73771,0.445677 1.19372,0.705383 0.91202,0.519414 2.05658,1.1366 3.43339,1.852084 0.6884,0.354301 1.3126,0.683455 1.87275,0.987019 0.56015,0.303565 1.05639,0.581748 1.48828,0.834575 0.4319,0.252827 0.79965,0.480556 1.10329,0.682645 0.30364,0.20209 0.54292,0.378848 0.71831,0.530201 0.0855,0.07568 0.16599,0.161939 0.24081,0.258899 0.0748,0.09696 0.14413,0.204217 0.20825,0.322461 0.0641,0.118243 0.12278,0.247528 0.17622,0.387056 0.0534,0.139528 0.10143,0.28929 0.14418,0.450102 0.0855,0.321623 0.15,0.686197 0.19275,1.092956 0.0427,0.406759 0.0641,0.855827 0.0641,1.347722 0,0.223588 -0.0116,0.433349 -0.0346,0.629419 -0.023,0.19607 -0.0573,0.378702 -0.10336,0.547253 -0.046,0.168551 -0.10405,0.323022 -0.17311,0.464054 -0.0691,0.141033 -0.14925,0.268375 -0.24133,0.381889 -0.0877,0.113514 -0.1874,0.213038 -0.29921,0.298173 -0.11181,0.08514 -0.23614,0.15615 -0.37207,0.212907 -0.13593,0.05676 -0.28386,0.09926 -0.4439,0.127641 -0.16004,0.02838 -0.33209,0.04238 -0.51625,0.04238 -0.18416,0 -0.35432,-0.01123 -0.51108,-0.03359 -0.15675,-0.02236 -0.30008,-0.05605 -0.42943,-0.100769 -0.12935,-0.04472 -0.2448,-0.100355 -0.34675,-0.167432 -0.10194,-0.06708 -0.19004,-0.145175 -0.26458,-0.234611 -0.0702,-0.08943 -0.13187,-0.207101 -0.18449,-0.352433 -0.0526,-0.145333 -0.0962,-0.318635 -0.13125,-0.519865 -0.0351,-0.20123 -0.0615,-0.43017 -0.0791,-0.687297 -0.0175,-0.257126 -0.0263,-0.542221 -0.0263,-0.855244 v -4.065902 h -10.28671 v 2.187463 c 0,0.626048 0.0204,1.216797 0.061,1.771468 0.0406,0.554672 0.1013,1.073716 0.18242,1.557011 0.0811,0.483295 0.1827,0.930635 0.30438,1.342554 0.0608,0.205959 0.12694,0.403063 0.19792,0.591178 0.071,0.188116 0.14677,0.367164 0.22789,0.537435 0.0811,0.170271 0.1734,0.336965 0.27699,0.499711 0.10358,0.162747 0.21862,0.321752 0.34468,0.476974 0.12606,0.155222 0.26333,0.306538 0.41186,0.454236 0.14853,0.147697 0.30804,0.291842 0.47904,0.432015 0.171,0.140172 0.35326,0.276629 0.54674,0.409277 0.19347,0.132648 0.39848,0.261416 0.61443,0.38654 0.21595,0.125123 0.44319,0.246203 0.68161,0.363802 0.23842,0.117599 0.4879,0.231507 0.74879,0.341581 0.26309,0.110074 0.53274,0.213227 0.80926,0.309542 0.27651,0.09632 0.55962,0.185645 0.84956,0.2682 0.28994,0.08256 0.58701,0.15858 0.89038,0.227377 0.30337,0.0688 0.61338,0.130481 0.93018,0.185518 0.31679,0.05504 0.64026,0.103416 0.97048,0.144694 0.33022,0.04128 0.66714,0.07583 1.01079,0.103353 0.68731,0.05504 1.40149,0.08217 2.14251,0.08217 0.67524,0 1.32959,-0.0235 1.96318,-0.0708 0.6336,-0.0473 1.2462,-0.118312 1.83813,-0.212907 0.59194,-0.09459 1.16331,-0.212608 1.71359,-0.3545 0.27515,-0.07095 0.54505,-0.148223 0.80977,-0.230994 0.26473,-0.08277 0.52394,-0.171022 0.77825,-0.265617 0.50863,-0.19263 0.97563,-0.39686 1.40095,-0.611849 0.21266,-0.107494 0.41485,-0.217645 0.60668,-0.330729 0.19183,-0.113084 0.37367,-0.229108 0.54467,-0.347782 0.171,-0.118674 0.33145,-0.240056 0.48162,-0.364319 0.15018,-0.124264 0.28975,-0.251002 0.4191,-0.380856 0.12935,-0.129853 0.24856,-0.262465 0.35708,-0.397908 0.10853,-0.135443 0.20635,-0.273929 0.29404,-0.414962 0.0899,-0.141033 0.17457,-0.291572 0.25322,-0.452169 0.0786,-0.160596 0.15169,-0.331436 0.21911,-0.511596 0.0674,-0.180161 0.12882,-0.36975 0.185,-0.569475 0.0562,-0.199724 0.10698,-0.409096 0.15193,-0.628385 0.0899,-0.438578 0.15711,-0.916671 0.20205,-1.433504 0.0449,-0.516834 0.0677,-1.072509 0.0677,-1.667599 0,-0.409339 -0.01,-0.804798 -0.03,-1.185974 -0.02,-0.381175 -0.0504,-0.748213 -0.0904,-1.101225 -0.04,-0.353011 -0.0898,-0.692143 -0.14986,-1.016992 -0.06,-0.324848 -0.12979,-0.635558 -0.20981,-0.932243 -0.08,-0.296684 -0.17024,-0.578972 -0.27026,-0.847493 -0.10003,-0.268521 -0.21018,-0.522903 -0.33022,-0.763261 -0.12003,-0.240358 -0.25012,-0.466834 -0.39015,-0.679028 -0.14004,-0.212194 -0.29006,-0.410249 -0.45011,-0.594279 -0.16004,-0.184031 -0.34829,-0.374612 -0.56534,-0.571542 -0.21704,-0.19693 -0.46286,-0.400469 -0.7369,-0.610298 -0.27405,-0.20983 -0.57639,-0.425811 -0.90744,-0.64854 -0.33105,-0.222728 -0.69044,-0.452185 -1.07849,-0.687813 -0.38804,-0.235628 -0.805,-0.477526 -1.25005,-0.726054 -0.44505,-0.248527 -0.91853,-0.503384 -1.42058,-0.764811 -1.0041,-0.522853 -2.12222,-1.071444 -3.35432,-1.645894 -0.4297,-0.19951 -0.81691,-0.391819 -1.1622,-0.576709 -0.3453,-0.184891 -0.64862,-0.362513 -0.90951,-0.532784 -0.26089,-0.170272 -0.47929,-0.333207 -0.65577,-0.488859 -0.17649,-0.155652 -0.311,-0.303902 -0.40308,-0.444934 -0.0965,-0.141033 -0.18087,-0.299476 -0.25321,-0.474907 -0.0724,-0.175431 -0.13264,-0.367913 -0.18087,-0.577742 -0.0482,-0.20983 -0.0844,-0.436868 -0.10852,-0.681096 -0.0241,-0.244227 -0.0362,-0.505822 -0.0362,-0.784448 0,-0.216709 0.0102,-0.419558 0.031,-0.608748 0.0208,-0.189191 0.0524,-0.364911 0.0941,-0.526583 0.0417,-0.161672 0.0936,-0.309231 0.15606,-0.443384 0.0625,-0.134153 0.13529,-0.254584 0.21859,-0.361218 0.0877,-0.106635 0.18558,-0.200111 0.29301,-0.280087 0.10743,-0.07997 0.22476,-0.14667 0.35192,-0.199987 0.12715,-0.05332 0.26394,-0.09323 0.41082,-0.11989 0.14689,-0.02666 0.30364,-0.03979 0.47026,-0.03979 0.15346,0 0.29582,0.0097 0.42736,0.02945 0.13155,0.01978 0.25212,0.04933 0.36174,0.08888 0.10962,0.03956 0.20841,0.08897 0.2961,0.148311 0.0877,0.05934 0.16419,0.128623 0.22997,0.207739 0.0658,0.07912 0.12378,0.184687 0.17311,0.31626 0.0493,0.131573 0.0901,0.289326 0.12299,0.473356 0.0329,0.184031 0.0575,0.394481 0.0739,0.630969 0.0164,0.236488 0.0248,0.499121 0.0248,0.788066 v 2.476335 h 10.28671 v -1.32085 c 0,-0.663886 -0.0209,-1.279171 -0.0625,-1.845882 -0.0417,-0.566711 -0.10428,-1.084891 -0.18759,-1.554427 -0.0417,-0.234768 -0.0885,-0.457186 -0.14056,-0.66766 -0.0521,-0.210474 -0.10908,-0.408615 -0.17157,-0.594796 -0.0625,-0.18618 -0.13019,-0.360562 -0.20308,-0.522448 -0.0729,-0.161887 -0.15131,-0.311476 -0.23462,-0.449068 -0.0811,-0.139313 -0.17318,-0.275468 -0.27595,-0.408761 -0.10276,-0.133293 -0.21613,-0.263917 -0.34055,-0.391191 -0.12441,-0.127273 -0.25959,-0.251333 -0.40566,-0.372587 -0.14606,-0.121254 -0.30305,-0.239266 -0.47077,-0.3545 -0.16771,-0.115234 -0.346,-0.227716 -0.53537,-0.33693 -0.18936,-0.109215 -0.38998,-0.215133 -0.60099,-0.318327 -0.42203,-0.20639 -0.88716,-0.401116 -1.39578,-0.583427 -0.25212,-0.09115 -0.51115,-0.176554 -0.7767,-0.256315 -0.26555,-0.07976 -0.53751,-0.153842 -0.81649,-0.222209 -0.55795,-0.136733 -1.14274,-0.250426 -1.75441,-0.341581 -0.61167,-0.09116 -1.25027,-0.159578 -1.91565,-0.205156 -0.66538,-0.04558 -1.35778,-0.06873 -2.07687,-0.06873 z"
       style="font-size:47.7223px;line-height:0;font-family:Impact;-inkscape-font-specification:Impact;letter-spacing:-1.19305px;word-spacing:0px;fill:#ffffff;stroke:#ffffff;stroke-width:0.471854;stroke-linecap:round;stroke-linejoin:round;stroke-miterlimit:3.8;paint-order:stroke fill markers"
       id="path6" /><path
       d="M 85.08783,87.43394 V 54.019442 H 77.237146 V 87.43394 Z"
       style="font-size:47.7223px;line-height:0;font-family:Impact;-inkscape-font-specification:Impact;letter-spacing:-1.19305px;word-spacing:0px;fill:#ffffff;stroke:#ffffff;stroke-width:0.471854;stroke-linecap:round;stroke-linejoin:round;stroke-miterlimit:3.8;paint-order:stroke fill markers"
       id="path5" /><path
       d="m 88.556868,54.022026 v 5.722648 c 0.259221,0.004 0.518153,0.0081 0.742591,0.02429 0.29816,0.0215 0.56576,0.05364 0.802535,0.09663 0.236774,0.043 0.442661,0.09673 0.61805,0.16123 0.175389,0.0645 0.320079,0.13983 0.434082,0.225826 0.114003,0.086 0.213705,0.196923 0.299207,0.332796 0.0855,0.135873 0.156939,0.296908 0.21394,0.482658 0.057,0.185751 0.09966,0.396375 0.128158,0.632003 0.0285,0.235628 0.04289,0.495842 0.04289,0.781348 v 2.745052 c 0,0.309584 -0.01303,0.59295 -0.03824,0.850077 -0.02521,0.257127 -0.06275,0.488311 -0.113171,0.692981 -0.05042,0.204669 -0.113499,0.383156 -0.189136,0.535368 -0.07564,0.152212 -0.163735,0.278 -0.264583,0.377754 -0.09646,0.09632 -0.21289,0.180462 -0.348816,0.252698 -0.135926,0.07224 -0.29125,0.13271 -0.466638,0.180868 -0.175389,0.04816 -0.370643,0.08392 -0.585494,0.108003 -0.214851,0.02408 -0.44952,0.03617 -0.703833,0.03617 -0.159806,0 -0.368657,-0.0077 -0.571542,-0.01447 v 5.731433 h 2.729033 c 0.605091,0 1.181066,-0.01641 1.72806,-0.04909 0.546993,-0.03268 1.065014,-0.0814 1.55391,-0.146761 0.488896,-0.06536 0.948446,-0.146911 1.379244,-0.244946 0.430798,-0.09803 0.832394,-0.212419 1.205094,-0.343132 0.377086,-0.130713 0.724939,-0.276024 1.042831,-0.435115 0.317892,-0.159092 0.605848,-0.332395 0.864547,-0.519865 0.129349,-0.09373 0.251318,-0.190626 0.365869,-0.291455 0.11455,-0.10083 0.221675,-0.205235 0.321427,-0.31316 0.09975,-0.107924 0.192549,-0.219327 0.277507,-0.334346 0.085,-0.115019 0.16238,-0.233937 0.23254,-0.356051 0.0701,-0.122113 0.13602,-0.253085 0.1974,-0.393257 0.0614,-0.140173 0.11792,-0.289286 0.17054,-0.447518 0.10523,-0.316464 0.19339,-0.669117 0.26355,-1.057817 0.0701,-0.3887 0.12253,-0.813404 0.15761,-1.274341 0.0351,-0.460936 0.0527,-0.958209 0.0527,-1.491381 v -2.9099 c 0,-0.522854 -0.009,-1.011487 -0.0279,-1.465544 -0.0186,-0.454057 -0.047,-0.873578 -0.0842,-1.258838 -0.0373,-0.38526 -0.0836,-0.736185 -0.13953,-1.052649 -0.0559,-0.316464 -0.12131,-0.598792 -0.19585,-0.84646 -0.0701,-0.251107 -0.15735,-0.492315 -0.26148,-0.724503 -0.10414,-0.232188 -0.22517,-0.454908 -0.36329,-0.668177 -0.138116,-0.213269 -0.292985,-0.417499 -0.465085,-0.611849 -0.1721,-0.19435 -0.361326,-0.379057 -0.567407,-0.554488 -0.201697,-0.175431 -0.428912,-0.340785 -0.682129,-0.495577 -0.253218,-0.154792 -0.532421,-0.298895 -0.837159,-0.433048 -0.304737,-0.134153 -0.635412,-0.25804 -0.99167,-0.371554 -0.356258,-0.113514 -0.737888,-0.216666 -1.145667,-0.309542 -0.403394,-0.09287 -0.850949,-0.174256 -1.342037,-0.243912 -0.491088,-0.06966 -1.025771,-0.127712 -1.604553,-0.17415 -0.578782,-0.04644 -1.201626,-0.08117 -1.868103,-0.104386 -0.614763,-0.02142 -1.276396,-0.0309 -1.965772,-0.03256 z"
       style="font-size:47.7223px;line-height:0;font-family:Impact;-inkscape-font-specification:Impact;letter-spacing:-1.19305px;word-spacing:0px;fill:#ffffff;stroke:#ffffff;stroke-width:0.471854;stroke-linecap:round;stroke-linejoin:round;stroke-miterlimit:3.8;paint-order:stroke fill markers"
       id="path4" /><path
       d="M 57.302962,87.43394 V 54.019442 H 49.565967 V 87.43394 Z"
       style="font-size:47.7223px;line-height:0;font-family:Impact;-inkscape-font-specification:Impact;letter-spacing:-1.19305px;word-spacing:0px;fill:#ffffff;stroke:#ffffff;stroke-width:0.471854;stroke-linecap:round;stroke-linejoin:round;stroke-miterlimit:3.8;paint-order:stroke fill markers"
       id="path3" /><path
       d="m 60.772518,54.047347 v 5.693709 c 0.266431,0.0026 0.52415,0.0088 0.753959,0.02636 0.26966,0.02064 0.514053,0.05174 0.733289,0.09302 0.219235,0.04128 0.413065,0.09311 0.581876,0.155029 0.168812,0.06192 0.312594,0.133969 0.430982,0.216524 0.122772,0.08256 0.230382,0.188127 0.322461,0.31626 0.09208,0.128134 0.168574,0.278975 0.22996,0.452686 0.06139,0.173711 0.107283,0.369822 0.137976,0.589111 0.03069,0.219289 0.04599,0.461704 0.04599,0.726571 v 1.83658 c 0,0.368061 -0.01575,0.698943 -0.04754,0.992188 -0.03179,0.293245 -0.07957,0.548966 -0.143144,0.767395 -0.03179,0.109214 -0.06723,0.209213 -0.10697,0.299723 -0.03974,0.09051 -0.08357,0.17159 -0.131259,0.243396 -0.04768,0.07181 -0.0994,0.134483 -0.155029,0.187585 -0.05563,0.0531 -0.115222,0.09686 -0.1788,0.131259 -0.122772,0.06536 -0.269342,0.122548 -0.43925,0.171565 -0.169908,0.04902 -0.363283,0.08979 -0.580326,0.122473 -0.217044,0.03268 -0.457741,0.05704 -0.72192,0.07338 -0.224157,0.01386 -0.474162,0.01857 -0.732255,0.02067 v 5.210017 c 0.325124,0.0029 0.634225,0.01134 0.903304,0.03462 0.308026,0.02666 0.579321,0.06709 0.813904,0.120406 0.234582,0.05332 0.432624,0.119495 0.593762,0.199471 0.08057,0.03999 0.151732,0.08357 0.21394,0.130224 0.06221,0.04665 0.115317,0.09655 0.159164,0.149862 0.04604,0.05332 0.08942,0.117118 0.129708,0.19172 0.04028,0.0746 0.07761,0.159913 0.112137,0.255798 0.06906,0.19177 0.12656,0.42641 0.1726,0.703316 0.04604,0.276906 0.08085,0.59604 0.103869,0.958081 0.02302,0.362042 0.03411,0.766703 0.03411,1.21388 V 87.43394 h 10.28671 v -8.812899 c 0,-0.674206 -0.006,-1.28258 -0.01809,-1.825212 -0.01206,-0.542632 -0.03015,-1.019344 -0.05426,-1.430403 -0.02411,-0.411059 -0.05426,-0.75611 -0.09043,-1.035596 -0.03617,-0.279486 -0.07838,-0.493392 -0.126608,-0.641305 -0.04385,-0.151352 -0.106014,-0.306339 -0.186035,-0.464571 -0.08002,-0.158232 -0.177844,-0.319613 -0.294039,-0.484725 -0.116195,-0.165111 -0.250707,-0.333921 -0.403076,-0.505912 -0.152369,-0.171991 -0.322537,-0.347195 -0.51108,-0.526066 -0.09427,-0.08943 -0.200033,-0.176562 -0.316776,-0.261483 -0.116743,-0.08492 -0.244741,-0.167641 -0.383956,-0.248047 -0.27843,-0.160811 -0.601651,-0.312516 -0.969967,-0.455269 -0.368316,-0.142753 -0.781515,-0.276316 -1.239717,-0.401009 -0.458203,-0.124694 -0.961379,-0.240631 -1.509469,-0.347266 0.605091,-0.04472 1.160193,-0.111586 1.665531,-0.201021 0.25267,-0.04472 0.493156,-0.095 0.720887,-0.150895 0.227731,-0.0559 0.442645,-0.117409 0.645438,-0.184485 0.202793,-0.06708 0.39317,-0.139819 0.571025,-0.218075 0.177855,-0.07826 0.343177,-0.162228 0.496094,-0.251664 0.152917,-0.08944 0.2937,-0.184639 0.421679,-0.285254 0.127979,-0.100615 0.243192,-0.206532 0.346232,-0.318327 0.103041,-0.111794 0.199745,-0.237234 0.289905,-0.375687 0.09016,-0.138453 0.173867,-0.290158 0.251148,-0.45527 0.07728,-0.165111 0.147989,-0.343597 0.21239,-0.535367 0.0644,-0.191771 0.122629,-0.396521 0.174149,-0.61495 0.05152,-0.218429 0.09675,-0.450477 0.135393,-0.695565 0.03864,-0.245087 0.07036,-0.5034 0.09612,-0.775146 0.05152,-0.543492 0.07751,-1.140462 0.07751,-1.790589 0,-0.356021 -0.009,-0.699733 -0.02739,-1.031461 -0.01836,-0.331728 -0.04596,-0.651164 -0.08268,-0.958598 -0.03672,-0.307434 -0.08289,-0.602594 -0.137976,-0.885734 -0.05508,-0.283141 -0.11931,-0.55454 -0.192753,-0.813387 -0.07344,-0.258847 -0.155726,-0.505454 -0.247531,-0.740007 -0.09181,-0.234553 -0.193174,-0.456883 -0.30334,-0.667142 -0.110166,-0.21026 -0.229074,-0.408314 -0.357601,-0.594279 -0.128527,-0.185966 -0.266524,-0.359744 -0.413412,-0.521416 -0.144695,-0.163391 -0.294961,-0.319242 -0.450618,-0.467155 -0.155658,-0.147912 -0.316556,-0.288212 -0.483175,-0.420646 -0.166619,-0.132433 -0.338666,-0.256666 -0.516247,-0.37362 -0.177581,-0.116954 -0.360778,-0.226671 -0.549321,-0.328146 -0.188543,-0.101474 -0.382372,-0.195124 -0.581876,-0.281119 -0.199505,-0.086 -0.404484,-0.164095 -0.61495,-0.234611 -0.210466,-0.07052 -0.426594,-0.133065 -0.648022,-0.188103 -0.221429,-0.05504 -0.448189,-0.102552 -0.680579,-0.14211 -0.460395,-0.07912 -1.026647,-0.148402 -1.698604,-0.207739 -0.671958,-0.05934 -1.449671,-0.108754 -2.333191,-0.148311 -0.883521,-0.03956 -1.873212,-0.06911 -2.968295,-0.08888 -0.07163,-0.0013 -0.163105,-8.58e-4 -0.235644,-0.0021 z"
       style="font-size:47.7223px;line-height:0;font-family:Impact;-inkscape-font-specification:Impact;letter-spacing:-1.19305px;word-spacing:0px;fill:#ffffff;stroke:#ffffff;stroke-width:0.471854;stroke-linecap:round;stroke-linejoin:round;stroke-miterlimit:3.8;paint-order:stroke fill markers"
       id="path2" /></g></svg>
